<?xml version="1.0" encoding="UTF-8"?>
<svg version="1.1" xmlns="http://www.w3.org/2000/svg" width="1024" height="1024">
<path d="M0 0 C5.77436075 4.17894914 9.96573866 9.29422675 11.57421875 16.37890625 C13.20491768 27.58338597 8.19672691 36.45470853 3.0625 46.125 C4.24629481 48.19345398 4.24629481 48.19345398 6.0625 50.125 C8.28387756 50.7077007 8.28387756 50.7077007 10.8046875 50.5859375 C11.77349854 50.58343994 12.74230957 50.58094238 13.74047852 50.57836914 C14.79549561 50.55250732 15.8505127 50.52664551 16.9375 50.5 C18.04085693 50.48638428 19.14421387 50.47276855 20.28100586 50.45874023 C31.20454944 50.25768404 42.08223978 49.45836174 52.97265625 48.62890625 C59.50004822 48.14136484 66.02151828 47.85034902 72.5625 47.625 C79.99241243 47.36074086 87.35418933 46.88458839 94.75 46.125 C137.03706039 41.80565591 137.03706039 41.80565591 147.0625 49.125 C150.04412691 52.29898994 150.97676099 55.01039288 151.3125 59.375 C150.9803414 64.35737893 149.39609764 68.03728465 146.75 72.1796875 C142.5050028 78.95721144 142.36488386 84.51417302 143.3359375 92.32421875 C143.91617479 94.27740211 143.91617479 94.27740211 145.8359375 95.2109375 C146.57070313 95.51257813 147.30546875 95.81421875 148.0625 96.125 C148.79726563 96.55039062 149.53203125 96.97578125 150.2890625 97.4140625 C157.23413228 101.28248899 162.65641242 102.28597946 170.4453125 100.61328125 C176.82732913 98.74194417 182.30474042 95.76163936 186.0625 90.125 C187.88620303 81.94823313 184.89023982 75.78315696 180.90869141 68.87231445 C178.42454819 64.45230996 177.4609607 61.3362299 178.0625 56.125 C181.50801097 50.45657873 185.69012374 47.80542814 192.0625 46.125 C194.93100252 45.82316411 197.73742969 45.5971171 200.61328125 45.4609375 C201.85717873 45.3994326 201.85717873 45.3994326 203.12620544 45.33668518 C212.65642348 44.94724217 222.11366951 45.4803201 231.625 46.0625 C245.89668989 46.89097417 259.47261882 47.39562846 273.72381592 45.84106445 C285.10907546 44.6269843 296.48277781 43.7698587 307.93521118 43.64819336 C309.88503193 43.62560776 311.83453907 43.57972633 313.78393555 43.53320312 C321.54445961 43.52904561 327.64225869 44.53604665 334.0625 49.125 C337.19952304 53.36920764 337.69026257 56.92353875 337.0625 62.125 C335.48428526 66.2202649 333.30588532 69.77344342 330.8125 73.375 C328.0360759 78.13771959 328.25806855 83.80560644 329.0625 89.125 C330.00826799 90.82302847 331.00066037 92.49703367 332.0625 94.125 C332.0625 94.785 332.0625 95.445 332.0625 96.125 C332.8978125 96.310625 332.8978125 96.310625 333.75 96.5 C336.0625 97.125 336.0625 97.125 338.1875 98.125 C345.36243594 100.62062989 352.93477386 100.86164878 360.0625 98.125 C365.03330759 95.5012987 370.13792915 92.6421031 372.0625 87.125 C372.73755042 82.46888301 372.67552432 79.19779256 370.3125 75.0625 C369.57 74.093125 368.8275 73.12375 368.0625 72.125 C364.30380909 66.29648943 362.9498198 61.05233159 364.0625 54.125 C366.09942147 49.66317201 369.04813532 48.55908277 373.4375 46.875 C380.4859376 44.45272004 387.11327262 43.93072132 394.5 43.9375 C395.43142822 43.93830566 396.36285645 43.93911133 397.32250977 43.93994141 C406.06402869 44.01199271 414.7772802 44.46331024 423.5 45 C424.17312225 45.03920563 424.84624451 45.07841125 425.5397644 45.11880493 C427.48409429 45.23429822 429.42762227 45.36305195 431.37109375 45.4921875 C432.49314209 45.56550293 433.61519043 45.63881836 434.77124023 45.71435547 C438.37650729 46.16417812 441.62865006 46.93958989 445.0625 48.125 C448.79993382 55.59986764 445.78147944 69.64943549 445.20663452 77.74438477 C444.40823586 89.20021381 443.83349036 100.63945595 443.75 112.125 C443.73259766 113.20869873 443.71519531 114.29239746 443.69726562 115.40893555 C443.70134004 121.85720944 444.57492874 127.16160556 447.0625 133.125 C452.58164718 132.83451857 456.26217771 130.39525203 460.79296875 127.5 C466.78221132 123.87140553 474.72921199 124.12445675 481.4140625 125.66796875 C488.57047388 128.70445406 493.37042502 135.32733733 496.453125 142.24609375 C500.16853747 153.14376483 500.63223577 164.39255718 496.0625 175.125 C492.12653623 181.51597147 487.12678681 187.22833282 480.25 190.4375 C471.95136437 192.2274018 465.61984703 190.9552595 458.0625 187.125 C456.94167345 186.37859804 455.83458819 185.61064567 454.75 184.8125 C452.18207481 182.82341485 452.18207481 182.82341485 449.1875 183.375 C448.48625 183.6225 447.785 183.87 447.0625 184.125 C445.38412948 189.98926672 444.71257721 195.22486504 444.75 201.3125 C444.75128906 202.22668701 444.75257813 203.14087402 444.75390625 204.08276367 C444.89809609 215.28361095 445.95292736 226.44153065 446.99487305 237.58862305 C447.6972052 245.25256021 448.2173023 252.87548349 448.28125 260.57421875 C448.29232788 261.2897139 448.30340576 262.00520905 448.31481934 262.74238586 C448.30697994 266.43101638 448.16490662 267.97139007 446.0625 271.125 C439.30538806 273.37737065 431.38615324 272.29638266 424.375 271.625 C408.36285688 270.27927786 391.89557138 270.19875578 376.0625 273.125 C376.58271084 277.96585088 377.99540144 281.13632977 380.5625 285.25 C384.63505102 291.80947767 386.26995165 297.40899037 384.63671875 305.140625 C382.35016146 312.2668281 377.22124401 317.98457097 371.0625 322.125 C369.44185461 322.88920677 367.7935515 323.59697676 366.125 324.25 C365.29097656 324.58257813 364.45695312 324.91515625 363.59765625 325.2578125 C354.46991852 328.3800895 345.97569933 327.48966926 337.0625 324.125 C328.90395058 320.0201499 322.98523644 313.85388999 320.0625 305.125 C318.48233137 294.65638285 322.13263898 287.13271857 327.76171875 278.52734375 C329.37992997 275.99407243 329.37992997 275.99407243 329.0625 272.125 C316.29418384 268.89689298 303.52059594 270.18677973 290.55288696 271.29302979 C286.37471545 271.6492066 282.19513846 271.98811869 278.015625 272.328125 C277.17659134 272.39673737 276.33755768 272.46534973 275.47309875 272.53604126 C266.24442533 273.28441939 257.00819406 273.89389826 247.76782227 274.47802734 C242.76941992 274.79703617 237.7901129 275.14235886 232.80859375 275.6640625 C225.91370648 276.3098508 219.01007021 276.34730111 212.09082031 276.36523438 C209.80237844 276.37504338 207.51479893 276.40622124 205.2265625 276.4375 C203.75000522 276.44402335 202.27344167 276.44927643 200.796875 276.453125 C199.47913086 276.4624707 198.16138672 276.47181641 196.80371094 276.48144531 C191.31776762 275.95876995 187.5293526 274.3048597 183.1875 270.8125 C180.04414647 266.8370823 180.0625 263.87431594 180.0625 258.9375 C181.0725139 255.08682202 182.3605326 252.95435327 184.5625 249.6875 C187.77894878 244.80966238 189.43604501 242.00833395 189.0625 236.125 C187.71104351 231.53422769 185.98682871 227.59133848 182.109375 224.63671875 C174.84298398 221.04273039 166.62852492 220.17442434 158.8125 222.25 C153.19114079 224.21613518 148.95458795 226.93727331 145.0625 231.4375 C143.46248316 235.73754525 144.18383003 239.98526165 145.89892578 244.16186523 C147.27959491 246.89020344 148.76540311 249.55006072 150.26757812 252.21289062 C152.67854911 256.69912778 153.61681573 259.90041499 153.0625 265.125 C150.40603934 270.7699789 146.6842989 272.98388519 141.0625 275.125 C123.54848094 279.98674356 100.84628151 277.61886517 83.0625 275.125 C82.7325 274.795 82.4025 274.465 82.0625 274.125 C80.46821573 274.36760848 78.87418051 274.61193771 77.28125 274.86328125 C69.13264868 275.8244719 59.89570697 275.73606899 52.0625 273.125 C49.2880028 273.08475527 46.54521424 273.1027073 43.7734375 273.17578125 C42.9555777 273.1946489 42.1377179 273.21351654 41.29507446 273.23295593 C39.56171849 273.27483724 37.82842954 273.31957461 36.09521484 273.36694336 C33.46855547 273.43667554 30.84187565 273.49133418 28.21484375 273.54492188 C26.52601802 273.58761618 24.83721469 273.63120824 23.1484375 273.67578125 C21.98542618 273.69781364 21.98542618 273.69781364 20.79891968 273.72029114 C15.36413181 273.88756868 10.3271204 274.77891513 5.0625 276.125 C5.64100855 280.48791861 7.26441473 283.46252982 9.5625 287.1875 C13.92833457 294.28198118 14.86035357 299.81113449 14.0625 308.125 C11.96304329 315.70711436 6.06928051 321.60359918 -0.4453125 325.703125 C-10.32778838 330.71639265 -20.56293667 331.29555153 -31.1484375 328.1953125 C-40.15111259 324.74050441 -46.17199476 318.90742005 -50.3125 310.25 C-51.80391359 302.79293207 -51.55092491 295.91257071 -47.9375 289.125 C-46.67681424 287.30914986 -45.35526367 285.55586246 -44.01171875 283.80078125 C-42.44682314 281.3595441 -42.14622548 278.97758151 -41.9375 276.125 C-46.04626487 273.18129133 -48.85845308 272.74519854 -53.875 272.8125 C-54.58519287 272.821604 -55.29538574 272.83070801 -56.02709961 272.84008789 C-70.44342278 273.14732344 -84.93398025 274.24803074 -99.28515625 275.62109375 C-100.3997522 275.71886108 -100.3997522 275.71886108 -101.53686523 275.81860352 C-103.39332715 275.9848505 -105.24762348 276.17483621 -107.1015625 276.3671875 C-109.9375 276.125 -109.9375 276.125 -112.2734375 274.2578125 C-114.62121059 271.24869487 -115.12345744 269.2909528 -115.51000977 265.54956055 C-115.66005211 264.1198719 -115.66005211 264.1198719 -115.81312561 262.66130066 C-115.91733322 261.62193863 -116.02154083 260.5825766 -116.12890625 259.51171875 C-116.23847153 258.4323555 -116.3480368 257.35299225 -116.46092224 256.24092102 C-116.69254502 253.94021338 -116.92189082 251.63927557 -117.14916992 249.33813477 C-117.49212869 245.89160206 -117.85016523 242.44686523 -118.20898438 239.00195312 C-122.89014064 192.70419891 -122.89014064 192.70419891 -114.3515625 179.6484375 C-111.49922118 176.5754731 -109.32572463 176.16286585 -105.1328125 175.75390625 C-100.55474834 175.87371201 -97.56836077 177.59376006 -93.8125 180.0625 C-89.6015666 182.76552709 -86.04496073 184.80355142 -80.9375 185.125 C-75.75057666 183.48702421 -72.17028603 181.52518098 -68.9375 177.125 C-65.18778176 167.43096099 -65.19817076 158.41489538 -68.6875 148.6875 C-70.80661842 143.93645159 -72.79871711 141.42933867 -77.6953125 139.39453125 C-84.43066784 137.69148513 -89.30823945 141.10004518 -95.04736328 144.20336914 C-100.34365177 147.00673432 -103.87700971 148.2178753 -109.9375 147.125 C-114.06023822 145.56752112 -116.0678279 143.1574935 -118.09936523 139.25170898 C-121.17447891 131.44882077 -121.26230826 122.83275043 -121.1875 114.5625 C-121.18218262 113.4691333 -121.17686523 112.3757666 -121.17138672 111.24926758 C-121.06538175 101.5900681 -120.60999631 91.95491514 -120.0625 82.3125 C-120.02338501 81.59988007 -119.98427002 80.88726013 -119.94396973 80.15304565 C-118.53610299 55.09251138 -118.53610299 55.09251138 -115.04272461 50.79296875 C-112.12835035 48.48391101 -110.31592885 48.69128037 -106.625 48.8125 C-105.98836426 48.82796875 -105.35172852 48.8434375 -104.69580078 48.859375 C-102.4414494 48.92280341 -100.19037496 49.02175638 -97.9375 49.125 C-96.05599029 49.20444376 -94.17447983 49.2838699 -92.29296875 49.36328125 C-89.2925453 49.4932626 -86.29230281 49.62592896 -83.29223633 49.76391602 C-64.39027841 51.12378154 -64.39027841 51.12378154 -45.9375 48.125 C-45.50290287 42.89403092 -46.7591242 39.99488517 -49.375 35.5 C-53.24449476 28.79287576 -55.37930888 23.52744049 -53.2890625 15.6953125 C-49.604445 5.33429406 -43.4121141 0.94849894 -33.70703125 -3.7109375 C-22.71794596 -8.32976319 -9.91769639 -6.29798069 0 0 Z M-35.9375 8.125 C-36.865625 8.764375 -37.79375 9.40375 -38.75 10.0625 C-42.38262276 13.48754432 -43.81689394 15.75764691 -44.26171875 20.80078125 C-44.18847922 25.6367926 -42.30745074 28.95107434 -39.9375 33.0625 C-36.73425887 39.02894246 -34.69276111 43.22235706 -35.9375 50.125 C-37.31730968 53.65118028 -38.35453906 54.78740723 -41.62890625 56.68359375 C-55.70768151 62.81708616 -74.22312837 60.36090454 -89.16040039 59.48339844 C-95.42447489 59.1211701 -101.6626384 59.01227794 -107.9375 59.125 C-109.69138577 65.13648706 -109.62231575 71.53362832 -110 77.75 C-110.04385834 78.4688739 -110.08771667 79.1877478 -110.13290405 79.92840576 C-110.77800637 90.78810223 -111.17054153 101.64160511 -111.23605347 112.52069092 C-111.24528521 113.99635602 -111.25931451 115.47199961 -111.27835083 116.9475708 C-111.30214906 119.02005183 -111.304791 121.09146978 -111.30078125 123.1640625 C-111.30376221 124.34178223 -111.30674316 125.51950195 -111.30981445 126.73291016 C-110.86219947 130.81104957 -109.78986707 133.47397824 -107.9375 137.125 C-106.16356123 138.48647131 -106.16356123 138.48647131 -103.9375 138.125 C-101.06081888 136.77323131 -101.06081888 136.77323131 -98.125 134.8125 C-90.25274533 130.04345576 -84.03548237 127.95405287 -74.9375 130.125 C-66.74650358 133.4883826 -61.99971899 140.14247442 -58.5625 148.0625 C-55.23618479 158.11132619 -55.44562093 170.10715213 -59.6875 179.828125 C-63.71200093 187.22314547 -68.93762061 191.36096253 -76.9375 194.125 C-85.17254655 195.90515945 -93.03362613 191.9833101 -100.03515625 187.90234375 C-101.36794679 187.02326914 -102.66022721 186.08295459 -103.9375 185.125 C-105.95182266 185.62756112 -105.95182266 185.62756112 -107.9375 187.125 C-110.18410706 193.02629883 -110.32093895 198.67033895 -110.3125 204.9375 C-110.31306396 206.0210376 -110.31362793 207.1045752 -110.31420898 208.22094727 C-110.17088599 219.71733085 -109.10519276 231.12527472 -108 242.5625 C-107.86316803 243.98195419 -107.86316803 243.98195419 -107.72357178 245.43008423 C-107.45880578 248.14027552 -107.18671409 250.84958221 -106.91015625 253.55859375 C-106.78661018 254.78976425 -106.78661018 254.78976425 -106.66056824 256.04580688 C-106.32520577 259.22257607 -105.95105593 262.0843322 -104.9375 265.125 C-102.6875736 265.15266303 -100.43754088 265.17168646 -98.1875 265.1875 C-96.30804688 265.20490234 -96.30804688 265.20490234 -94.390625 265.22265625 C-91.03663305 265.19713885 -87.74148608 264.94834574 -84.40234375 264.63671875 C-77.69562304 264.04482504 -71.0129851 263.90428285 -64.28198242 263.88476562 C-62.24162494 263.87495975 -60.20223677 263.84375509 -58.16210938 263.8125 C-42.02929991 263.74926508 -42.02929991 263.74926508 -35.4375 269.1875 C-32.51517154 272.96217427 -32.34923994 276.48337235 -32.9375 281.125 C-33.96955429 283.97800513 -35.3799672 286.55266442 -36.875 289.1875 C-41.4083904 297.2538722 -41.4083904 297.2538722 -41.44140625 306.34765625 C-38.03490025 313.00518457 -33.33269495 316.81457388 -26.375 319.5 C-17.72201976 321.07326913 -9.54288818 319.68899121 -2.0625 314.9375 C1.60752243 312.04148704 3.7601816 308.60600344 5.0625 304.125 C5.0625 297.90987735 2.32287259 293.41978039 -1.08984375 288.4453125 C-4.17158099 283.68561869 -4.62127215 279.7319316 -3.9375 274.125 C-3.25 271.1875 -3.25 271.1875 -1.9375 269.125 C0.3125 267.9375 0.3125 267.9375 3.0625 267.125 C3.990625 266.774375 4.91875 266.42375 5.875 266.0625 C13.02052901 263.96087382 20.23710875 263.96836021 27.625 264 C28.53185547 263.99613281 29.43871094 263.99226563 30.37304688 263.98828125 C34.13550225 263.99373804 37.71076805 264.07248447 41.4375 264.62890625 C46.78980993 265.36138832 52.10537352 265.22912026 57.5 265.1875 C58.61310547 265.18298828 59.72621094 265.17847656 60.87304688 265.17382812 C63.60292101 265.16211193 66.33268174 265.14570699 69.0625 265.125 C68.97685791 264.3 68.89121582 263.475 68.80297852 262.625 C66.82080792 243.43769568 65.01226708 224.43347545 64.875 205.125 C64.86186768 203.96589111 64.84873535 202.80678223 64.83520508 201.61254883 C64.82682142 192.73038169 65.24909676 185.30626282 71.0625 178.125 C74.50886693 175.51051474 77.85634814 175.65011189 82.0625 176.125 C86.30279851 177.86123968 90.27356348 180.08896122 94.234375 182.3828125 C97.70283816 184.30525526 99.63065583 185.125 103.6875 185.125 C108.53654061 183.68824723 111.75278214 182.21490019 114.51171875 177.8125 C118.9317593 169.3017056 120.39388628 161.42649531 117.875 152.0625 C115.8172208 145.84130706 113.40057153 141.60877616 107.8125 138.0625 C100.5688279 136.25158198 95.50959836 138.80395396 89.125 142.25 C83.64791378 145.10032038 79.19185485 146.40946039 73.0625 145.125 C68.59350269 142.84295882 67.22203589 139.86227169 65.640625 135.3203125 C63.74617976 128.12654072 63.87127757 121.01076019 63.875 113.625 C63.87391235 112.63836868 63.87391235 112.63836868 63.87280273 111.63180542 C63.87494023 93.76901731 64.97041269 75.94838767 66.0625 58.125 C64.8245166 58.19162842 63.5865332 58.25825684 62.31103516 58.3269043 C51.87772932 58.88400626 41.44027658 59.34508991 31 59.75 C29.78868408 59.80212646 28.57736816 59.85425293 27.3293457 59.90795898 C5.85132686 60.70070736 5.85132686 60.70070736 -2.9375 55.125 C-5.6956529 52.19968632 -6.14729815 49.71021992 -6.375 45.8125 C-6.1780097 39.89294145 -3.61665265 35.48825188 -0.25 30.75 C2.30498315 25.6400337 2.73894366 20.23391257 1 14.8125 C-2.71923701 9.65355834 -7.64586204 5.54745728 -13.9375 4.125 C-22.08712048 3.32849359 -29.10501886 3.2991456 -35.9375 8.125 Z M276.8125 55.375 C275.56412354 55.48400635 274.31574707 55.5930127 273.02954102 55.70532227 C271.30562134 55.88985962 271.30562134 55.88985962 269.546875 56.078125 C268.53334961 56.18286133 267.51982422 56.28759766 266.47558594 56.39550781 C263.97369909 56.89444829 263.97369909 56.89444829 262.75927734 58.8371582 C261.25925395 63.76242773 261.25677944 68.95106966 260.9375 74.0625 C260.8547583 75.36324463 260.7720166 76.66398926 260.68676758 78.00415039 C260.08319576 88.19747892 259.82587175 98.3929969 259.76495361 108.603302 C259.75504123 110.2334432 259.7405678 111.86356349 259.72137451 113.49362183 C259.69756291 115.79681782 259.6950767 118.0990472 259.69921875 120.40234375 C259.69009964 121.08039063 259.68098053 121.7584375 259.67158508 122.45703125 C259.7187751 127.4115577 260.92382939 130.75682448 263.0625 135.125 C268.51984364 134.78391602 271.63584207 133.33740162 276.1640625 130.3359375 C281.43148765 126.97605726 286.972939 126.33989957 293.0625 127.125 C300.23450783 129.02311933 305.01477268 132.97455719 309.0625 139.125 C314.27287257 149.52990813 315.93179341 161.05918503 312.9375 172.4375 C310.59510316 179.23266065 306.18056379 185.28342506 300.0625 189.125 C293.83146135 192.05151522 288.78984169 192.57456409 282.0625 191.125 C278.92148889 189.99054381 275.97577546 188.57255608 273 187.0625 C271.84467773 186.49692383 271.84467773 186.49692383 270.66601562 185.91992188 C268.79215657 185.00045066 266.92642239 184.06445112 265.0625 183.125 C260.30451171 187.46925018 260.43854242 192.94830235 260.12890625 199.06640625 C259.56408726 219.42080923 260.70803191 243.40809319 266.0625 263.125 C268.50013799 262.9812497 270.9375895 262.83502168 273.375 262.6875 C274.04595703 262.64818359 274.71691406 262.60886719 275.40820312 262.56835938 C279.306669 262.33042484 283.1813684 262.01171731 287.06640625 261.609375 C293.86985457 260.98153703 300.66991905 260.86735422 307.49707031 260.82983398 C308.9610353 260.81824888 310.42495597 260.79769526 311.88867188 260.76831055 C328.17434856 260.44325076 328.17434856 260.44325076 335.0625 265.125 C338.15051727 268.49374611 338.39597895 271.43436192 338.34106445 275.94042969 C337.85288996 279.76881298 336.0167823 282.81357253 334.125 286.125 C331.05132992 291.56098991 329.32692316 295.8185077 329.0625 302.125 C331.951325 309.40986305 337.27960979 313.4833684 344.375 316.5625 C352.66135681 317.82652053 360.94991238 316.76544552 368.0625 312.125 C371.95873165 308.45023836 374.76638641 305.12376671 375.5625 299.75 C375.55244823 294.27178316 372.54058515 290.2570899 369.69140625 285.76171875 C366.77013744 281.03304622 366.2632963 276.56144375 367.0625 271.125 C369.85734765 266.40869459 372.82678449 264.25244748 377.921875 262.6484375 C397.0023455 257.98277501 419.69050351 261.43579066 439.0625 263.125 C438.98733154 262.27010986 438.98733154 262.27010986 438.91064453 261.39794922 C432.38435669 186.58981987 432.38435669 186.58981987 441.0625 176.125 C443.51317164 173.58982244 444.66444127 173.1655476 448.20703125 172.8046875 C452.95320648 173.19899993 455.86579529 174.80812056 459.9375 177.125 C465.91782298 180.30552571 470.16431918 182.46013177 477.0625 181.125 C482.57675461 178.57995941 485.45018778 174.45370061 488.0625 169.125 C490.4232439 162.11747538 490.24053028 152.9075253 487.375 146.125 C486.6470924 144.76775561 485.87803708 143.43146894 485.0625 142.125 C484.711875 141.52816406 484.36125 140.93132812 484 140.31640625 C481.80519014 137.13850447 479.4764967 135.59693473 475.875 134.5 C469.30797753 133.42361718 464.10384874 136.44510479 458.48828125 139.546875 C451.13712928 143.55454744 451.13712928 143.55454744 446.75 143.25 C442.39728475 141.92205298 440.77323889 140.76513508 438.0625 137.125 C434.00008602 129.17014753 433.86839244 120.43921468 433.875 111.6875 C433.87435547 110.76807617 433.87371094 109.84865234 433.87304688 108.90136719 C433.94768911 98.45484699 434.63991508 88.04234159 435.35083008 77.62329102 C435.83605437 70.44705675 436.21732195 63.31992014 436.0625 56.125 C431.78027023 55.83376035 427.49765275 55.54931167 423.21459961 55.27050781 C421.76493884 55.17525946 420.31538794 55.07832012 418.8659668 54.97949219 C400.03882012 53.66240108 400.03882012 53.66240108 381.25 54.875 C380.10917969 55.01421875 378.96835937 55.1534375 377.79296875 55.296875 C375.00759721 55.88387071 375.00759721 55.88387071 373.50390625 57.86328125 C372.85472243 61.18963019 374.08401662 62.70415937 375.8125 65.5625 C380.79107954 73.92604834 382.12780979 80.31980177 381.0625 90.125 C377.97088703 99.19543473 371.68800806 102.98164237 363.46484375 107.07421875 C355.36348899 110.61773815 343.86864674 110.58997404 335.5625 107.5625 C328.39017977 104.10916063 322.5524508 99.27964425 319.6953125 91.69921875 C317.39211059 82.33002087 318.78889346 75.15573213 323.5546875 66.87890625 C325.11769914 64.02418291 326.11941724 61.23351064 327.0625 58.125 C324.89783424 55.50878101 323.71005021 54.24323329 320.31469727 53.62329102 C319.26338623 53.62514404 318.2120752 53.62699707 317.12890625 53.62890625 C315.93555664 53.62600586 314.74220703 53.62310547 313.51269531 53.62011719 C312.22975586 53.64235352 310.94681641 53.66458984 309.625 53.6875 C308.30725586 53.70071289 306.98951172 53.71392578 305.63183594 53.72753906 C295.9939126 53.8722656 286.4076011 54.47479803 276.8125 55.375 Z M105.3605957 55.22143555 C103.23431674 55.43910552 101.10689053 55.63797227 98.97851562 55.83398438 C91.26638965 56.5662901 83.65677653 57.56173962 76.0625 59.125 C74.37978907 78.04386351 73.01691418 96.87587663 72.875 115.875 C72.86194824 116.8753125 72.84889648 117.875625 72.83544922 118.90625 C72.82863906 124.66569434 73.3396839 129.61711209 75.0625 135.125 C75.3925 135.455 75.7225 135.785 76.0625 136.125 C81.10194137 136.01301241 84.44152173 134.50742325 88.875 132.125 C96.05126151 128.41159785 102.01518194 126.97790058 109.875 129.3125 C117.71286388 132.42014427 121.49957837 137.6510552 125.0625 145.125 C129.14245913 156.96906046 129.27811824 167.89078861 123.99609375 179.4609375 C120.2695706 185.88088828 115.17359701 190.77951073 108.0625 193.125 C98.61728104 194.3727555 91.11155061 191.70674655 83.1875 186.75 C80.29129585 184.83490658 80.29129585 184.83490658 77.75 185.5625 C75.05380397 188.05897781 74.19849208 190.97558126 73.77197266 194.58056641 C73.71950211 197.63796326 73.68355877 200.69204473 73.6875 203.75 C73.68766113 204.93319824 73.68782227 206.11639648 73.68798828 207.33544922 C73.83154154 219.35312329 74.83886437 231.28677497 75.9375 243.25 C76.02445129 244.22076477 76.11140259 245.19152954 76.20098877 246.19171143 C76.45322235 248.96499003 76.71963658 251.73646427 76.9921875 254.5078125 C77.06939026 255.34928833 77.14659302 256.19076416 77.22613525 257.05773926 C77.54985392 261.55770949 77.54985392 261.55770949 80.0625 265.125 C90.28682029 267.19366172 101.54334073 266.31113327 111.91918945 266.31030273 C115.01722503 266.31251229 118.1149167 266.33078934 121.21289062 266.34960938 C123.19270713 266.35253992 125.1725253 266.35452698 127.15234375 266.35546875 C128.53364723 266.36624702 128.53364723 266.36624702 129.94285583 266.37724304 C134.4248243 266.36124284 137.99427099 266.25708367 142.0625 264.125 C142.40944628 259.18655188 141.45939138 256.27122894 139.125 251.9375 C135.25095513 244.65649368 133.49617997 238.13628228 135.640625 229.90625 C138.92204716 222.38881014 145.59149023 216.86194888 153 213.625 C161.75612298 210.85860854 173.54031664 210.21961917 182.1875 213.6875 C188.46526115 217.2025529 194.51801791 221.96593823 197.43359375 228.69921875 C199.68222286 237.37250247 198.81461731 245.35279579 194.37890625 253.07421875 C193.32206423 254.72063436 192.25623203 256.36127755 191.1875 258 C189.86877569 260.04765548 189.86877569 260.04765548 190.1875 262.3125 C191.04464661 264.48009414 191.04464661 264.48009414 194.0625 266.125 C205.54780174 268.04073417 217.35394156 266.83729394 228.88305664 265.97363281 C231.91417115 265.74707215 234.94609931 265.53646824 237.97851562 265.328125 C239.90891907 265.19101485 241.83926045 265.05302749 243.76953125 264.9140625 C244.67459915 264.85046539 245.57966705 264.78686829 246.51216125 264.72134399 C247.3445079 264.65812958 248.17685455 264.59491516 249.03442383 264.52978516 C249.76639481 264.47569489 250.49836578 264.42160461 251.2525177 264.36587524 C253.15972594 264.21193441 253.15972594 264.21193441 255.0625 263.125 C254.94278652 260.74963244 254.81775232 258.37480238 254.6875 256 C254.62477905 254.85035767 254.62477905 254.85035767 254.56079102 253.67749023 C254.31826792 249.53552739 254.00845299 245.41701626 253.55078125 241.29296875 C252.26906962 229.59592731 251.84526727 218.00717899 251.8125 206.25 C251.80741425 205.5083963 251.80232849 204.7667926 251.79708862 204.00271606 C251.68203703 183.19971625 251.68203703 183.19971625 257.0625 177.125 C260.79315664 174.88028287 264.19665003 173.71925167 268.5234375 174.66015625 C272.05744896 176.03697144 275.35326195 177.75204764 278.70703125 179.515625 C285.02697675 183.03795229 285.02697675 183.03795229 292.0625 183.125 C298.84037515 179.46494742 302.3370053 174.83419668 304.5234375 167.578125 C306.21375332 159.88596316 305.28290203 152.29880602 302.0625 145.125 C299.74266046 141.51858278 297.2796679 138.8740264 293.625 136.625 C287.30687428 135.39219498 282.16850897 137.82438184 276.6875 140.6875 C266.10754406 145.87388067 266.10754406 145.87388067 260.0625 144.125 C255.8183142 141.767119 253.98369897 139.72239471 252.4140625 135.16015625 C250.29259164 127.63323774 250.69000009 119.85741388 250.78125 112.10473633 C250.81222521 109.46095373 250.82221949 106.81777394 250.828125 104.17382812 C250.86977039 95.18626941 251.17142828 86.28035322 251.84423828 77.31665039 C252.12177986 73.25814809 252.16099546 69.25498645 252.125 65.1875 C252.11823242 64.14432617 252.11823242 64.14432617 252.11132812 63.08007812 C252.09993686 61.42834451 252.0820334 59.7766574 252.0625 58.125 C241.50825012 54.60691671 228.48882412 55.90769781 217.46704102 55.88476562 C214.6060002 55.87493471 211.74564266 55.84375307 208.88476562 55.8125 C207.04948336 55.80597917 205.21419606 55.80072511 203.37890625 55.796875 C202.10848228 55.7783548 202.10848228 55.7783548 200.81239319 55.75946045 C195.79449709 55.77832079 192.46063047 56.43362661 188.0625 59.125 C188.35298143 64.64414718 190.79224797 68.32467771 193.6875 72.85546875 C196.9475386 78.23638474 196.60575737 84.02499579 196.0625 90.125 C194.3266101 96.33655782 190.11158781 101.23956915 185.0625 105.125 C175.37675034 110.524151 164.96832082 111.41600953 154.0625 110.125 C146.01237054 107.76141919 139.62039268 103.20747396 135.0625 96.125 C132.07933461 90.05720101 132.24486721 83.72842418 133.0625 77.125 C134.64720134 72.84241755 136.72522467 69.03660587 139.0625 65.125 C140.72343584 62.22632279 140.72343584 62.22632279 140.9375 59 C139.7349914 56.42319586 138.7116915 56.15027572 136.0625 55.125 C125.78360842 53.69135511 115.639942 54.16735788 105.3605957 55.22143555 Z " fill="#020202" transform="translate(203.9375,363.875)"/>
<path d="M0 0 C0.84973389 0.1232666 1.69946777 0.2465332 2.57495117 0.37353516 C3.48865479 0.5132373 4.4023584 0.65293945 5.34375 0.796875 C6.27614502 0.93528809 7.20854004 1.07370117 8.16918945 1.21630859 C14.46294017 2.16013125 20.75026718 3.14656654 27.03125 4.171875 C28.17013672 4.3560498 28.17013672 4.3560498 29.33203125 4.54394531 C34.60297655 5.42648828 34.60297655 5.42648828 36.84375 6.546875 C38.03742188 6.68480469 39.23109375 6.82273437 40.4609375 6.96484375 C44.80555135 7.46991737 48.80759416 8.540473 52.96875 9.859375 C53.98388672 10.16004883 53.98388672 10.16004883 55.01953125 10.46679688 C60.85892845 12.29090258 66.86926841 14.91101515 69.84375 20.546875 C71.25028256 26.17300526 71.0807165 29.53488378 68.22265625 34.59375 C65.82358394 37.99186942 62.89893571 40.74687881 59.84375 43.546875 C56.26700503 46.91021037 55.0473312 49.9047451 54.6640625 54.87890625 C54.77620221 60.09340284 55.81181778 63.14984318 59.40625 66.984375 C66.33286335 73.04210222 72.51764365 74.11825668 81.64453125 73.90625 C86.96178763 73.30895136 91.32554431 71.51713778 95.53125 68.2265625 C98.29651482 64.68768193 97.96273078 59.86984333 97.84375 55.546875 C97.2410905 52.89440548 96.44134649 50.39909151 95.55859375 47.828125 C94.11963149 43.23602686 94.38587399 39.73735262 96.09375 35.296875 C98.52566462 31.47529488 100.57837362 29.96866713 104.84375 28.546875 C112.36385905 28.0779953 119.61878191 27.81176241 126.67895508 30.73291016 C129.07812344 31.6985845 129.07812344 31.6985845 132.68359375 32.34375 C138.80249294 33.65709306 144.67759707 35.708088 150.58325195 37.75048828 C152.53467722 38.42305621 154.49066587 39.08094204 156.44726562 39.73828125 C157.70863657 40.17099207 158.96971503 40.60455663 160.23046875 41.0390625 C161.35670654 41.42433105 162.48294434 41.80959961 163.64331055 42.20654297 C167.36823629 43.76652789 170.95800589 45.66113089 173.84375 48.546875 C174.25510725 54.58011465 173.05835374 59.94871466 171.65625 65.796875 C171.40214355 66.87751221 171.14803711 67.95814941 170.88623047 69.0715332 C166.04505429 89.37014432 160.75422477 109.56333121 155.55664062 129.77276611 C154.61819344 133.42459512 153.68400545 137.07750128 152.75 140.73046875 C150.80012331 148.3408711 148.82708385 155.94513741 146.84375 163.546875 C146.58658203 164.53278625 146.32941406 165.51869751 146.06445312 166.53448486 C141.65210494 183.44270157 137.20806651 200.34236696 132.72369385 217.23162842 C132.15716146 219.36607663 131.59131131 221.5007061 131.02630615 223.63555908 C129.62559926 228.92757206 128.21408628 234.21633189 126.77825928 239.49893188 C126.36849664 241.01275372 125.96283318 242.52769199 125.56158447 244.04379272 C125.01761222 246.09509267 124.45837644 248.14158814 123.89453125 250.1875 C123.44074097 251.86634277 123.44074097 251.86634277 122.9777832 253.57910156 C121.7128777 256.8893688 120.35473391 259.04718357 117.84375 261.546875 C110.05076185 261.70971356 102.93511639 258.78147135 95.65625 256.234375 C93.2467744 255.41206539 90.83662425 254.59172947 88.42578125 253.7734375 C87.28318848 253.38446289 86.1405957 252.99548828 84.96337891 252.59472656 C68.68599931 246.55132316 68.68599931 246.55132316 51.84375 246.546875 C51.98579741 248.13055247 52.13255153 249.71380818 52.28125 251.296875 C52.36246094 252.17859375 52.44367188 253.0603125 52.52734375 253.96875 C52.76943972 256.45491453 52.76943972 256.45491453 53.36328125 258.4453125 C54.04989389 261.44854503 54.0540452 264.34475306 54.09375 267.421875 C54.11953125 268.61554688 54.1453125 269.80921875 54.171875 271.0390625 C53.62021406 276.93658062 50.85391235 281.27891649 46.84375 285.546875 C43.96875 287.3125 43.96875 287.3125 40.84375 288.796875 C39.8125 289.29703125 38.78125 289.7971875 37.71875 290.3125 C29.38953314 293.88863115 19.34595004 293.61179287 10.84375 290.546875 C2.44629162 286.61339681 -4.67912562 281.08710489 -8.09375 272.234375 C-10.33660765 264.16844593 -10.00539368 257.01487171 -6.15625 249.546875 C-4.42710804 247.35180861 -2.51336257 245.38850232 -0.53125 243.421875 C4.15987042 238.79602351 4.15987042 238.79602351 5.84375 232.546875 C0.10957013 227.81850968 -6.46928602 226.67932401 -13.59375 225.046875 C-14.87531982 224.74354248 -16.15688965 224.44020996 -17.47729492 224.12768555 C-26.50025204 222.0187204 -35.56936353 220.26850982 -44.74584961 218.96484375 C-50.59340778 218.07470151 -54.98757215 216.44637721 -60.15625 213.546875 C-59.65409336 203.27026277 -58.11445863 193.27316695 -56.36474609 183.14770508 C-55.91148364 180.51477636 -55.47273691 177.87971501 -55.03515625 175.24414062 C-53.52392909 166.3078083 -51.77465718 157.46851264 -49.6015625 148.66796875 C-49.30194611 147.44496315 -49.30194611 147.44496315 -48.99627686 146.19725037 C-46.74301982 137.37030529 -43.61948859 128.10818965 -36.00390625 122.484375 C-32.59765045 120.75604225 -29.82954991 120.50139733 -26.15625 121.546875 C-22.25542825 123.68303929 -19.11896991 126.6179941 -15.93359375 129.69140625 C-11.17335072 134.3949849 -11.17335072 134.3949849 -5.09375 136.796875 C0.89431698 136.41668027 4.87205892 134.46527714 9.15625 130.296875 C13.85987166 122.63171377 16.00827239 113.5152098 14.84375 104.546875 C13.96061683 102.29083612 12.9361367 100.26816463 11.71875 98.17578125 C10.84375 96.546875 10.84375 96.546875 10.84375 94.546875 C4.19281548 91.1141346 -2.16320062 92.16753874 -9.09375 94.171875 C-14.83166554 95.70345143 -19.64184572 96.02783571 -25.15625 93.546875 C-30.32984241 87.86854186 -30.48576637 81.91888618 -30.15625 74.546875 C-29.80910777 71.70409054 -29.2605913 68.9273857 -28.65625 66.12890625 C-28.48319336 65.32064896 -28.31013672 64.51239166 -28.13183594 63.67964172 C-25.82147764 53.42977717 -22.5385223 43.47403455 -19.23828125 33.50805664 C-18.1442629 30.19810808 -17.07129555 26.88181717 -16 23.56445312 C-15.30331305 21.43709689 -14.60544033 19.31012853 -13.90625 17.18359375 C-13.58946289 16.20235031 -13.27267578 15.22110687 -12.94628906 14.21012878 C-7.81194966 -1.15744942 -7.81194966 -1.15744942 0 0 Z M-0.15625 10.546875 C-4.06302607 18.73731613 -6.83105669 27.23612096 -9.59375 35.859375 C-9.8361441 36.61299316 -10.07853821 37.36661133 -10.32827759 38.14306641 C-13.18828031 47.05721303 -16.00850818 55.97815792 -18.34375 65.046875 C-18.53960693 65.78462158 -18.73546387 66.52236816 -18.93725586 67.2824707 C-20.23032729 72.60706384 -20.83538462 78.0830738 -20.15625 83.546875 C-19.49625 84.206875 -18.83625 84.866875 -18.15625 85.546875 C-15.60400707 85.38199235 -15.60400707 85.38199235 -12.78125 84.734375 C-11.82476563 84.54230469 -10.86828125 84.35023438 -9.8828125 84.15234375 C-8.27163226 83.79456017 -6.66456635 83.41520691 -5.0703125 82.98828125 C1.34688484 81.50839697 8.18022113 82.09800508 13.84375 85.546875 C19.47752873 90.45808492 23.10452369 96.23251859 24.14331055 103.70043945 C24.28046593 105.92965166 24.31155093 108.1262443 24.28125 110.359375 C24.27367676 111.14618652 24.26610352 111.93299805 24.25830078 112.74365234 C23.95112901 123.66058177 20.12843392 132.44886486 12.265625 140.078125 C6.33058319 145.23381789 1.99338614 146.06575105 -5.76953125 145.91796875 C-14.27434979 144.98606822 -19.84605966 140.46819683 -25.3671875 134.21875 C-27.31535734 132.39818954 -28.55273784 131.93682836 -31.15625 131.546875 C-44.64030699 147.07914318 -49.87252571 187.41156903 -49.15625 207.546875 C-42.65902819 209.60605239 -36.0488606 210.68758998 -29.34375 211.859375 C4.33514502 217.95395355 4.33514502 217.95395355 14.40625 226.796875 C16.50559611 230.81301539 16.8113922 234.11805107 15.84375 238.546875 C13.7798353 242.48639101 10.77981721 245.56227098 7.734375 248.765625 C1.65211485 255.17559171 1.65211485 255.17559171 -0.15625 263.546875 C0.664248 270.03218108 3.530226 274.1107366 8.609375 278.10546875 C15.10675885 282.29696288 22.20533019 283.59642887 29.84375 282.546875 C34.7165155 281.24279675 38.64384545 279.62971569 42.40625 276.234375 C46.13711303 269.25928325 44.394576 264.08089701 42.55859375 256.703125 C41.37142839 251.46143316 41.23851796 247.43377488 42.90625 242.234375 C45.41570039 238.75352446 47.75289647 237.44289678 51.84375 236.546875 C71.20414025 233.77670787 93.6076054 244.7774711 111.84375 250.546875 C114.60812458 247.78250042 115.10093231 244.62611505 116.07421875 240.9453125 C116.29705032 240.1235704 116.5198819 239.30182831 116.74946594 238.45518494 C117.51747388 235.61268863 118.27461131 232.76741754 119.03125 229.921875 C119.58835123 227.84394308 120.14565063 225.76606427 120.703125 223.68823242 C122.56320714 216.73601658 124.40527582 209.77908602 126.2430954 202.820961 C126.87325737 200.4351597 127.50380335 198.04946005 128.13433838 195.66375732 C138.22528548 157.47155489 148.31207955 119.27388754 157.78125 80.921875 C158.05259766 79.83145905 158.32394531 78.74104309 158.60351562 77.61758423 C159.34644347 74.62452865 160.07956343 71.62927922 160.80859375 68.6328125 C161.01987411 67.78405045 161.23115448 66.93528839 161.44883728 66.06080627 C162.47170621 61.79265845 163.07524949 57.97335844 162.84375 53.546875 C154.54787839 49.4785941 146.11266993 46.5412392 137.28125 43.859375 C136.03150391 43.46943359 134.78175781 43.07949219 133.49414062 42.67773438 C119.38353374 38.17810145 119.38353374 38.17810145 104.84375 38.546875 C104.69412605 42.21266177 104.71945726 45.1584602 105.84375 48.671875 C107.91665198 55.32619077 108.15752309 63.56522475 105.28125 69.984375 C101.15045505 76.79731806 95.35039511 80.4118318 87.8671875 82.8515625 C77.35988751 85.26796999 67.88073154 83.56626202 58.59375 78.26171875 C52.58967448 74.17940225 48.14572465 68.45279896 45.84375 61.546875 C45.19396752 53.76013744 45.02384795 46.9564545 49.84375 40.546875 C52.10665715 37.94232113 54.41472952 35.41492097 56.8203125 32.94140625 C58.85541643 30.53306898 59.86120026 28.52093685 60.84375 25.546875 C57.08049867 22.16966707 53.45910783 20.41678399 48.66796875 19.00390625 C47.97370285 18.79369339 47.27943695 18.58348053 46.56413269 18.36689758 C39.13430552 16.20432422 31.58898697 14.83793889 23.95776367 13.60620117 C21.61745076 13.2281067 19.28043772 12.83310488 16.94335938 12.43554688 C15.43766008 12.18393601 13.93180602 11.93324907 12.42578125 11.68359375 C11.73619827 11.56803635 11.0466153 11.45247894 10.33613586 11.3334198 C6.80293299 10.7670553 3.42246263 10.42138935 -0.15625 10.546875 Z " fill="#020202" transform="translate(753.15625,399.453125)"/>
</svg>
